<svg xmlns="http://www.w3.org/2000/svg" viewBox="0 0 600 160" role="img" aria-label="RiskLab">
  <defs>
    <marker id="rli-a" viewBox="0 0 14 10" refX="13" refY="5" markerWidth="5.5" markerHeight="5.5" orient="auto">
      <polygon points="0,0 14,5 0,10" fill="#fff"/>
    </marker>
  </defs>
  <g transform="translate(6,6) scale(0.296)">
    <path d="M 122,164 Q 150,112 204,93" stroke="#fff" stroke-width="5" fill="none" stroke-linecap="round" marker-end="url(#rli-a)"/>
    <path d="M 298,91 Q 354,112 375,174" stroke="#fff" stroke-width="5" fill="none" stroke-linecap="round" marker-end="url(#rli-a)"/>
    <path d="M 404,229 Q 415,300 381,346" stroke="#fff" stroke-width="5" fill="none" stroke-linecap="round" marker-end="url(#rli-a)"/>
    <path d="M 296,406 Q 248,426 197,380" stroke="#fff" stroke-width="5" fill="none" stroke-linecap="round" marker-end="url(#rli-a)"/>
    <path d="M 129,352 Q 100,302 81,244" stroke="#fff" stroke-width="5" fill="none" stroke-linecap="round" marker-end="url(#rli-a)"/>
    <polygon points="250,42 298,90 250,138 202,90" fill="#F07070" stroke="#CC1C1C" stroke-width="8" stroke-linejoin="round"/>
    <rect x="373" y="172" width="58" height="58" rx="5" fill="#CC33DD" stroke="#880099" stroke-width="8"/>
    <polygon points="344,322 295,407 393,407" fill="#33CC44" stroke="#1A9928" stroke-width="8" stroke-linejoin="round"/>
    <circle cx="156" cy="379" r="40" fill="#77AAEE" stroke="#1A5FCC" stroke-width="8"/>
    <polygon points="144,201 121,161 75,161 52,201 75,241 121,241" fill="#EEC030" stroke="#997000" stroke-width="8" stroke-linejoin="round"/>
    <text x="250" y="260" font-family="'Arial Black','Helvetica Neue',Arial,sans-serif" font-weight="900" font-size="40" text-anchor="middle" fill="#ffffff" letter-spacing="1">RISKLAB</text>
  </g>
  <text x="166" y="77" font-family="'IBM Plex Sans',Verdana,sans-serif" font-weight="700" font-size="52" letter-spacing="-1.5" fill="#ffffff">RiskLab</text>
  <text x="168" y="110" font-family="'IBM Plex Mono',monospace" font-weight="500" font-size="14" letter-spacing="4" fill="#9BB0C4">RISK  LABORATORY</text>
</svg>
